<?xml version="1.0" encoding="UTF-8"?>
<!DOCTYPE svg PUBLIC "-//W3C//DTD SVG 1.1//EN" "http://www.w3.org/Graphics/SVG/1.1/DTD/svg11.dtd">
<!-- Creator: CorelDRAW -->
<svg xmlns="http://www.w3.org/2000/svg" xml:space="preserve" width="6.82666in" height="6.82666in" style="shape-rendering:geometricPrecision; text-rendering:geometricPrecision; image-rendering:optimizeQuality; fill-rule:evenodd; clip-rule:evenodd"
viewBox="0 0 6.82666 6.82666"
 xmlns:xlink="http://www.w3.org/1999/xlink">
 <defs>
  <style type="text/css">
   <![CDATA[
    .fil2 {fill:none}
    .fil1 {fill:#424242}
    .fil0 {fill:#64B5F6}
   ]]>
  </style>
 </defs>
 <g id="Layer_x0020_1">
  <metadata id="CorelCorpID_0Corel-Layer"/>
  <path class="fil0" d="M2.78422 2.96812l-1.747 0c-0.101142,0 -0.183894,-0.082752 -0.183894,-0.183894l0 -1.747c0,-0.101142 0.082752,-0.183894 0.183894,-0.183894l1.747 0c0.101142,0 0.183894,0.082752 0.183894,0.183894l0 1.747c0,0.101142 -0.082752,0.183894 -0.183894,0.183894zm-1.49845 -1.16407l0.518283 0 0 -0.518283 0.213339 0 0 0.518283 0.518283 0 0 0.213339 -0.518283 0 0 0.518283 -0.213339 0 0 -0.518283 -0.518283 0 0 -0.213339z"/>
  <path class="fil1" d="M4.04244 2.96812l1.747 0c0.101142,0 0.183894,-0.082752 0.183894,-0.18389l0 -1.747c0,-0.101146 -0.082752,-0.183898 -0.183894,-0.183898l-1.747 0c-0.101142,0 -0.183894,0.082752 -0.183894,0.183898l0 1.747c0,0.101138 0.082752,0.18389 0.183894,0.18389zm0.248547 -1.16406l1.24991 0 0 0.213339 -1.24991 0 0 -0.213339z"/>
  <path class="fil1" d="M2.78421 3.85855l-1.74699 0c-0.101142,0 -0.183894,0.082752 -0.183894,0.183894l0 1.74699c0,0.101146 0.082752,0.183898 0.183894,0.183898l1.74699 0c0.101142,0 0.183894,-0.082752 0.183894,-0.183898l0 -1.74699c0,-0.101142 -0.082752,-0.183894 -0.183894,-0.183894zm-1.23999 0.540059l0.366492 0.366492 0.366492 -0.366492 0.150835 0.150835 -0.366492 0.366492 0.366492 0.366492 -0.150835 0.150835 -0.366492 -0.366492 -0.366492 0.366492 -0.150835 -0.150835 0.366492 -0.366492 -0.366492 -0.366492 0.150835 -0.150835z"/>
  <path class="fil0" d="M4.04243 3.85854l1.747 0c0.101138,0 0.18389,0.0827559 0.18389,0.183894l0 1.747c0,0.101138 -0.082752,0.18389 -0.18389,0.18389l-1.747 0c-0.101138,0 -0.183894,-0.082752 -0.183894,-0.18389l0 -1.747c0,-0.101138 0.0827559,-0.183894 0.183894,-0.183894zm0.8735 1.28131c0.0776693,0 0.140634,0.0629646 0.140634,0.140634 0,0.0776654 -0.0629646,0.14063 -0.140634,0.14063 -0.0776693,0 -0.140634,-0.0629646 -0.140634,-0.14063 0,-0.0776693 0.0629646,-0.140634 0.140634,-0.140634zm0 -0.72911c0.0776693,0 0.140634,0.0629646 0.140634,0.14063 0,0.0776693 -0.0629646,0.140634 -0.140634,0.140634 -0.0776693,0 -0.140634,-0.0629646 -0.140634,-0.140634 0,-0.0776654 0.0629646,-0.14063 0.140634,-0.14063zm-0.624953 0.39852l1.24991 0 0 0.213339 -1.24991 0 0 -0.213339z"/>
 </g>
 <rect class="fil2" width="6.82666" height="6.82666"/>
</svg>
